<?xml version="1.0" standalone="no"?>
 <!DOCTYPE svg PUBLIC "-//W3C//DTD SVG 1.1//EN" 
 "http://www.w3.org/Graphics/SVG/1.1/DTD/svg11.dtd"> 
<svg xmlns="http://www.w3.org/2000/svg" version="1.1" 
    width="29.7002cm" height="21.0007cm" viewBox="0 0 116930 82680 ">
<title>SVG Picture created as magicstick-F.SilkS.svg date 2016/07/02 18:06:19 </title>
  <desc>Picture generated by PCBNEW </desc>
<g style="fill:#000000; fill-opacity:1;stroke:#000000; stroke-opacity:1;
stroke-linecap:round; stroke-linejoin:round; "
 transform="translate(0 0) scale(1 1)">
</g>
<g style="fill:#000000; fill-opacity:0.0; 
stroke:#000000; stroke-width:-0.000393701; stroke-opacity:1; 
stroke-linecap:round; stroke-linejoin:round;">
</g>
<g style="fill:#000000; fill-opacity:0.0; 
stroke:#000000; stroke-width:39.3701; stroke-opacity:1; 
stroke-linecap:round; stroke-linejoin:round;">
</g>
<g style="fill:#000000; fill-opacity:0.0; 
stroke:#000000; stroke-width:59.0551; stroke-opacity:1; 
stroke-linecap:round; stroke-linejoin:round;">
<rect x="69685.9" y="65357.2" width="42519.7" height="12598.4" rx="0" />
</g>
<g style="fill:#000000; fill-opacity:0.0; 
stroke:#000000; stroke-width:39.3701; stroke-opacity:1; 
stroke-linecap:round; stroke-linejoin:round;">
</g>
<g style="fill:#000000; fill-opacity:0.0; 
stroke:#000000; stroke-width:59.0551; stroke-opacity:1; 
stroke-linecap:round; stroke-linejoin:round;">
<rect x="3937.01" y="3937.01" width="109056" height="74806" rx="0" />
</g>
<g style="fill:#000000; fill-opacity:0.0; 
stroke:#000000; stroke-width:39.3701; stroke-opacity:1; 
stroke-linecap:round; stroke-linejoin:round;">
</g>
<g style="fill:#000000; fill-opacity:0.0; 
stroke:#000000; stroke-width:59.0551; stroke-opacity:1; 
stroke-linecap:round; stroke-linejoin:round;">
<rect x="4724.41" y="4724.41" width="107481" height="73231.2" rx="0" />
</g>
<g style="fill:#000000; fill-opacity:0.0; 
stroke:#000000; stroke-width:39.3701; stroke-opacity:1; 
stroke-linecap:round; stroke-linejoin:round;">
</g>
<g style="fill:#000000; fill-opacity:0.0; 
stroke:#000000; stroke-width:59.0551; stroke-opacity:1; 
stroke-linecap:round; stroke-linejoin:round;">
<path d="M23622 4724
L23622 3937
" />
</g>
<g style="fill:#000000; fill-opacity:0.0; 
stroke:#000000; stroke-width:39.3701; stroke-opacity:1; 
stroke-linecap:round; stroke-linejoin:round;">
</g>
<g style="fill:#000000; fill-opacity:0.0; 
stroke:#000000; stroke-width:59.0551; stroke-opacity:1; 
stroke-linecap:round; stroke-linejoin:round;">
<path d="M43307 4724
L43307 3937
" />
</g>
<g style="fill:#000000; fill-opacity:0.0; 
stroke:#000000; stroke-width:39.3701; stroke-opacity:1; 
stroke-linecap:round; stroke-linejoin:round;">
</g>
<g style="fill:#000000; fill-opacity:0.0; 
stroke:#000000; stroke-width:59.0551; stroke-opacity:1; 
stroke-linecap:round; stroke-linejoin:round;">
<path d="M62992 4724
L62992 3937
" />
</g>
<g style="fill:#000000; fill-opacity:0.0; 
stroke:#000000; stroke-width:39.3701; stroke-opacity:1; 
stroke-linecap:round; stroke-linejoin:round;">
</g>
<g style="fill:#000000; fill-opacity:0.0; 
stroke:#000000; stroke-width:59.0551; stroke-opacity:1; 
stroke-linecap:round; stroke-linejoin:round;">
<path d="M82677 4724
L82677 3937
" />
</g>
<g style="fill:#000000; fill-opacity:0.0; 
stroke:#000000; stroke-width:39.3701; stroke-opacity:1; 
stroke-linecap:round; stroke-linejoin:round;">
</g>
<g style="fill:#000000; fill-opacity:0.0; 
stroke:#000000; stroke-width:59.0551; stroke-opacity:1; 
stroke-linecap:round; stroke-linejoin:round;">
<path d="M102362 4724
L102362 3937
" />
</g>
<g style="fill:#000000; fill-opacity:0.0; 
stroke:#000000; stroke-width:39.3701; stroke-opacity:1; 
stroke-linecap:round; stroke-linejoin:round;">
</g>
<g style="fill:#000000; fill-opacity:0.0; 
stroke:#000000; stroke-width:59.0551; stroke-opacity:1; 
stroke-linecap:round; stroke-linejoin:round;">
<path d="M14169 4562
L13877 4562
" />
<path d="M14023 4562
L14023 4050
L13974 4123
L13925 4172
L13877 4196
" />
</g>
<g style="fill:#000000; fill-opacity:0.0; 
stroke:#000000; stroke-width:39.3701; stroke-opacity:1; 
stroke-linecap:round; stroke-linejoin:round;">
</g>
<g style="fill:#000000; fill-opacity:0.0; 
stroke:#000000; stroke-width:59.0551; stroke-opacity:1; 
stroke-linecap:round; stroke-linejoin:round;">
<path d="M33562 4099
L33586 4074
L33635 4050
L33757 4050
L33805 4074
L33830 4099
L33854 4147
L33854 4196
L33830 4269
L33537 4562
L33854 4562
" />
</g>
<g style="fill:#000000; fill-opacity:0.0; 
stroke:#000000; stroke-width:39.3701; stroke-opacity:1; 
stroke-linecap:round; stroke-linejoin:round;">
</g>
<g style="fill:#000000; fill-opacity:0.0; 
stroke:#000000; stroke-width:59.0551; stroke-opacity:1; 
stroke-linecap:round; stroke-linejoin:round;">
<path d="M53222 4050
L53539 4050
L53368 4245
L53442 4245
L53490 4269
L53515 4294
L53539 4342
L53539 4464
L53515 4513
L53490 4537
L53442 4562
L53295 4562
L53247 4537
L53222 4513
" />
</g>
<g style="fill:#000000; fill-opacity:0.0; 
stroke:#000000; stroke-width:39.3701; stroke-opacity:1; 
stroke-linecap:round; stroke-linejoin:round;">
</g>
<g style="fill:#000000; fill-opacity:0.0; 
stroke:#000000; stroke-width:59.0551; stroke-opacity:1; 
stroke-linecap:round; stroke-linejoin:round;">
<path d="M73175 4221
L73175 4562
" />
<path d="M73053 4026
L72932 4391
L73248 4391
" />
</g>
<g style="fill:#000000; fill-opacity:0.0; 
stroke:#000000; stroke-width:39.3701; stroke-opacity:1; 
stroke-linecap:round; stroke-linejoin:round;">
</g>
<g style="fill:#000000; fill-opacity:0.0; 
stroke:#000000; stroke-width:59.0551; stroke-opacity:1; 
stroke-linecap:round; stroke-linejoin:round;">
<path d="M92885 4050
L92641 4050
L92617 4294
L92641 4269
L92690 4245
L92812 4245
L92860 4269
L92885 4294
L92909 4342
L92909 4464
L92885 4513
L92860 4537
L92812 4562
L92690 4562
L92641 4537
L92617 4513
" />
</g>
<g style="fill:#000000; fill-opacity:0.0; 
stroke:#000000; stroke-width:39.3701; stroke-opacity:1; 
stroke-linecap:round; stroke-linejoin:round;">
</g>
<g style="fill:#000000; fill-opacity:0.0; 
stroke:#000000; stroke-width:59.0551; stroke-opacity:1; 
stroke-linecap:round; stroke-linejoin:round;">
<path d="M112545 4050
L112448 4050
L112399 4074
L112375 4099
L112326 4172
L112302 4269
L112302 4464
L112326 4513
L112350 4537
L112399 4562
L112497 4562
L112545 4537
L112570 4513
L112594 4464
L112594 4342
L112570 4294
L112545 4269
L112497 4245
L112399 4245
L112350 4269
L112326 4294
L112302 4342
" />
</g>
<g style="fill:#000000; fill-opacity:0.0; 
stroke:#000000; stroke-width:39.3701; stroke-opacity:1; 
stroke-linecap:round; stroke-linejoin:round;">
</g>
<g style="fill:#000000; fill-opacity:0.0; 
stroke:#000000; stroke-width:59.0551; stroke-opacity:1; 
stroke-linecap:round; stroke-linejoin:round;">
<path d="M23622 77955
L23622 78742
" />
</g>
<g style="fill:#000000; fill-opacity:0.0; 
stroke:#000000; stroke-width:39.3701; stroke-opacity:1; 
stroke-linecap:round; stroke-linejoin:round;">
</g>
<g style="fill:#000000; fill-opacity:0.0; 
stroke:#000000; stroke-width:59.0551; stroke-opacity:1; 
stroke-linecap:round; stroke-linejoin:round;">
<path d="M43307 77955
L43307 78742
" />
</g>
<g style="fill:#000000; fill-opacity:0.0; 
stroke:#000000; stroke-width:39.3701; stroke-opacity:1; 
stroke-linecap:round; stroke-linejoin:round;">
</g>
<g style="fill:#000000; fill-opacity:0.0; 
stroke:#000000; stroke-width:59.0551; stroke-opacity:1; 
stroke-linecap:round; stroke-linejoin:round;">
<path d="M62992 77955
L62992 78742
" />
</g>
<g style="fill:#000000; fill-opacity:0.0; 
stroke:#000000; stroke-width:39.3701; stroke-opacity:1; 
stroke-linecap:round; stroke-linejoin:round;">
</g>
<g style="fill:#000000; fill-opacity:0.0; 
stroke:#000000; stroke-width:59.0551; stroke-opacity:1; 
stroke-linecap:round; stroke-linejoin:round;">
<path d="M82677 77955
L82677 78742
" />
</g>
<g style="fill:#000000; fill-opacity:0.0; 
stroke:#000000; stroke-width:39.3701; stroke-opacity:1; 
stroke-linecap:round; stroke-linejoin:round;">
</g>
<g style="fill:#000000; fill-opacity:0.0; 
stroke:#000000; stroke-width:59.0551; stroke-opacity:1; 
stroke-linecap:round; stroke-linejoin:round;">
<path d="M102362 77955
L102362 78742
" />
</g>
<g style="fill:#000000; fill-opacity:0.0; 
stroke:#000000; stroke-width:39.3701; stroke-opacity:1; 
stroke-linecap:round; stroke-linejoin:round;">
</g>
<g style="fill:#000000; fill-opacity:0.0; 
stroke:#000000; stroke-width:59.0551; stroke-opacity:1; 
stroke-linecap:round; stroke-linejoin:round;">
<path d="M14169 78580
L13877 78580
" />
<path d="M14023 78580
L14023 78069
L13974 78142
L13925 78190
L13877 78215
" />
</g>
<g style="fill:#000000; fill-opacity:0.0; 
stroke:#000000; stroke-width:39.3701; stroke-opacity:1; 
stroke-linecap:round; stroke-linejoin:round;">
</g>
<g style="fill:#000000; fill-opacity:0.0; 
stroke:#000000; stroke-width:59.0551; stroke-opacity:1; 
stroke-linecap:round; stroke-linejoin:round;">
<path d="M33562 78117
L33586 78093
L33635 78069
L33757 78069
L33805 78093
L33830 78117
L33854 78166
L33854 78215
L33830 78288
L33537 78580
L33854 78580
" />
</g>
<g style="fill:#000000; fill-opacity:0.0; 
stroke:#000000; stroke-width:39.3701; stroke-opacity:1; 
stroke-linecap:round; stroke-linejoin:round;">
</g>
<g style="fill:#000000; fill-opacity:0.0; 
stroke:#000000; stroke-width:59.0551; stroke-opacity:1; 
stroke-linecap:round; stroke-linejoin:round;">
<path d="M53222 78069
L53539 78069
L53368 78263
L53442 78263
L53490 78288
L53515 78312
L53539 78361
L53539 78483
L53515 78532
L53490 78556
L53442 78580
L53295 78580
L53247 78556
L53222 78532
" />
</g>
<g style="fill:#000000; fill-opacity:0.0; 
stroke:#000000; stroke-width:39.3701; stroke-opacity:1; 
stroke-linecap:round; stroke-linejoin:round;">
</g>
<g style="fill:#000000; fill-opacity:0.0; 
stroke:#000000; stroke-width:59.0551; stroke-opacity:1; 
stroke-linecap:round; stroke-linejoin:round;">
<path d="M73175 78239
L73175 78580
" />
<path d="M73053 78044
L72932 78410
L73248 78410
" />
</g>
<g style="fill:#000000; fill-opacity:0.0; 
stroke:#000000; stroke-width:39.3701; stroke-opacity:1; 
stroke-linecap:round; stroke-linejoin:round;">
</g>
<g style="fill:#000000; fill-opacity:0.0; 
stroke:#000000; stroke-width:59.0551; stroke-opacity:1; 
stroke-linecap:round; stroke-linejoin:round;">
<path d="M92885 78069
L92641 78069
L92617 78312
L92641 78288
L92690 78263
L92812 78263
L92860 78288
L92885 78312
L92909 78361
L92909 78483
L92885 78532
L92860 78556
L92812 78580
L92690 78580
L92641 78556
L92617 78532
" />
</g>
<g style="fill:#000000; fill-opacity:0.0; 
stroke:#000000; stroke-width:39.3701; stroke-opacity:1; 
stroke-linecap:round; stroke-linejoin:round;">
</g>
<g style="fill:#000000; fill-opacity:0.0; 
stroke:#000000; stroke-width:59.0551; stroke-opacity:1; 
stroke-linecap:round; stroke-linejoin:round;">
<path d="M112545 78069
L112448 78069
L112399 78093
L112375 78117
L112326 78190
L112302 78288
L112302 78483
L112326 78532
L112350 78556
L112399 78580
L112497 78580
L112545 78556
L112570 78532
L112594 78483
L112594 78361
L112570 78312
L112545 78288
L112497 78263
L112399 78263
L112350 78288
L112326 78312
L112302 78361
" />
</g>
<g style="fill:#000000; fill-opacity:0.0; 
stroke:#000000; stroke-width:39.3701; stroke-opacity:1; 
stroke-linecap:round; stroke-linejoin:round;">
</g>
<g style="fill:#000000; fill-opacity:0.0; 
stroke:#000000; stroke-width:59.0551; stroke-opacity:1; 
stroke-linecap:round; stroke-linejoin:round;">
<path d="M3937 23622
L4724 23622
" />
</g>
<g style="fill:#000000; fill-opacity:0.0; 
stroke:#000000; stroke-width:39.3701; stroke-opacity:1; 
stroke-linecap:round; stroke-linejoin:round;">
</g>
<g style="fill:#000000; fill-opacity:0.0; 
stroke:#000000; stroke-width:59.0551; stroke-opacity:1; 
stroke-linecap:round; stroke-linejoin:round;">
<path d="M3937 43307
L4724 43307
" />
</g>
<g style="fill:#000000; fill-opacity:0.0; 
stroke:#000000; stroke-width:39.3701; stroke-opacity:1; 
stroke-linecap:round; stroke-linejoin:round;">
</g>
<g style="fill:#000000; fill-opacity:0.0; 
stroke:#000000; stroke-width:59.0551; stroke-opacity:1; 
stroke-linecap:round; stroke-linejoin:round;">
<path d="M3937 62992
L4724 62992
" />
</g>
<g style="fill:#000000; fill-opacity:0.0; 
stroke:#000000; stroke-width:39.3701; stroke-opacity:1; 
stroke-linecap:round; stroke-linejoin:round;">
</g>
<g style="fill:#000000; fill-opacity:0.0; 
stroke:#000000; stroke-width:59.0551; stroke-opacity:1; 
stroke-linecap:round; stroke-linejoin:round;">
<path d="M4208 13864
L4452 13864
" />
<path d="M4160 14011
L4330 13499
L4501 14011
" />
</g>
<g style="fill:#000000; fill-opacity:0.0; 
stroke:#000000; stroke-width:39.3701; stroke-opacity:1; 
stroke-linecap:round; stroke-linejoin:round;">
</g>
<g style="fill:#000000; fill-opacity:0.0; 
stroke:#000000; stroke-width:59.0551; stroke-opacity:1; 
stroke-linecap:round; stroke-linejoin:round;">
<path d="M4367 33428
L4440 33452
L4464 33476
L4489 33525
L4489 33598
L4464 33647
L4440 33671
L4391 33696
L4196 33696
L4196 33184
L4367 33184
L4416 33208
L4440 33233
L4464 33281
L4464 33330
L4440 33379
L4416 33403
L4367 33428
L4196 33428
" />
</g>
<g style="fill:#000000; fill-opacity:0.0; 
stroke:#000000; stroke-width:39.3701; stroke-opacity:1; 
stroke-linecap:round; stroke-linejoin:round;">
</g>
<g style="fill:#000000; fill-opacity:0.0; 
stroke:#000000; stroke-width:59.0551; stroke-opacity:1; 
stroke-linecap:round; stroke-linejoin:round;">
<path d="M4489 53332
L4464 53356
L4391 53381
L4342 53381
L4269 53356
L4221 53308
L4196 53259
L4172 53161
L4172 53088
L4196 52991
L4221 52942
L4269 52893
L4342 52869
L4391 52869
L4464 52893
L4489 52918
" />
</g>
<g style="fill:#000000; fill-opacity:0.0; 
stroke:#000000; stroke-width:39.3701; stroke-opacity:1; 
stroke-linecap:round; stroke-linejoin:round;">
</g>
<g style="fill:#000000; fill-opacity:0.0; 
stroke:#000000; stroke-width:59.0551; stroke-opacity:1; 
stroke-linecap:round; stroke-linejoin:round;">
<path d="M4196 73066
L4196 72554
L4318 72554
L4391 72578
L4440 72627
L4464 72676
L4489 72773
L4489 72846
L4464 72944
L4440 72993
L4391 73041
L4318 73066
L4196 73066
" />
</g>
<g style="fill:#000000; fill-opacity:0.0; 
stroke:#000000; stroke-width:39.3701; stroke-opacity:1; 
stroke-linecap:round; stroke-linejoin:round;">
</g>
<g style="fill:#000000; fill-opacity:0.0; 
stroke:#000000; stroke-width:59.0551; stroke-opacity:1; 
stroke-linecap:round; stroke-linejoin:round;">
<path d="M112992 23622
L112205 23622
" />
</g>
<g style="fill:#000000; fill-opacity:0.0; 
stroke:#000000; stroke-width:39.3701; stroke-opacity:1; 
stroke-linecap:round; stroke-linejoin:round;">
</g>
<g style="fill:#000000; fill-opacity:0.0; 
stroke:#000000; stroke-width:59.0551; stroke-opacity:1; 
stroke-linecap:round; stroke-linejoin:round;">
<path d="M112992 43307
L112205 43307
" />
</g>
<g style="fill:#000000; fill-opacity:0.0; 
stroke:#000000; stroke-width:39.3701; stroke-opacity:1; 
stroke-linecap:round; stroke-linejoin:round;">
</g>
<g style="fill:#000000; fill-opacity:0.0; 
stroke:#000000; stroke-width:59.0551; stroke-opacity:1; 
stroke-linecap:round; stroke-linejoin:round;">
<path d="M112992 62992
L112205 62992
" />
</g>
<g style="fill:#000000; fill-opacity:0.0; 
stroke:#000000; stroke-width:39.3701; stroke-opacity:1; 
stroke-linecap:round; stroke-linejoin:round;">
</g>
<g style="fill:#000000; fill-opacity:0.0; 
stroke:#000000; stroke-width:59.0551; stroke-opacity:1; 
stroke-linecap:round; stroke-linejoin:round;">
<path d="M112477 13864
L112721 13864
" />
<path d="M112428 14011
L112599 13499
L112769 14011
" />
</g>
<g style="fill:#000000; fill-opacity:0.0; 
stroke:#000000; stroke-width:39.3701; stroke-opacity:1; 
stroke-linecap:round; stroke-linejoin:round;">
</g>
<g style="fill:#000000; fill-opacity:0.0; 
stroke:#000000; stroke-width:59.0551; stroke-opacity:1; 
stroke-linecap:round; stroke-linejoin:round;">
<path d="M112635 33428
L112708 33452
L112733 33476
L112757 33525
L112757 33598
L112733 33647
L112708 33671
L112660 33696
L112465 33696
L112465 33184
L112635 33184
L112684 33208
L112708 33233
L112733 33281
L112733 33330
L112708 33379
L112684 33403
L112635 33428
L112465 33428
" />
</g>
<g style="fill:#000000; fill-opacity:0.0; 
stroke:#000000; stroke-width:39.3701; stroke-opacity:1; 
stroke-linecap:round; stroke-linejoin:round;">
</g>
<g style="fill:#000000; fill-opacity:0.0; 
stroke:#000000; stroke-width:59.0551; stroke-opacity:1; 
stroke-linecap:round; stroke-linejoin:round;">
<path d="M112757 53332
L112733 53356
L112660 53381
L112611 53381
L112538 53356
L112489 53308
L112465 53259
L112440 53161
L112440 53088
L112465 52991
L112489 52942
L112538 52893
L112611 52869
L112660 52869
L112733 52893
L112757 52918
" />
</g>
<g style="fill:#000000; fill-opacity:0.0; 
stroke:#000000; stroke-width:39.3701; stroke-opacity:1; 
stroke-linecap:round; stroke-linejoin:round;">
</g>
<g style="fill:#000000; fill-opacity:0.0; 
stroke:#000000; stroke-width:59.0551; stroke-opacity:1; 
stroke-linecap:round; stroke-linejoin:round;">
<path d="M112465 73066
L112465 72554
L112587 72554
L112660 72578
L112708 72627
L112733 72676
L112757 72773
L112757 72846
L112733 72944
L112708 72993
L112660 73041
L112587 73066
L112465 73066
" />
</g>
<g style="fill:#000000; fill-opacity:0.0; 
stroke:#000000; stroke-width:39.3701; stroke-opacity:1; 
stroke-linecap:round; stroke-linejoin:round;">
</g>
<g style="fill:#000000; fill-opacity:0.0; 
stroke:#000000; stroke-width:59.0551; stroke-opacity:1; 
stroke-linecap:round; stroke-linejoin:round;">
<path d="M78881 76293
L78881 75703
L79022 75703
L79106 75731
L79162 75787
L79190 75843
L79219 75956
L79219 76040
L79190 76153
L79162 76209
L79106 76265
L79022 76293
L78881 76293
" />
<path d="M79725 76293
L79725 75984
L79697 75928
L79640 75899
L79528 75899
L79472 75928
" />
<path d="M79725 76265
L79669 76293
L79528 76293
L79472 76265
L79444 76209
L79444 76153
L79472 76096
L79528 76068
L79669 76068
L79725 76040
" />
<path d="M79922 75899
L80147 75899
" />
<path d="M80006 75703
L80006 76209
L80034 76265
L80090 76293
L80147 76293
" />
<path d="M80568 76265
L80512 76293
L80400 76293
L80343 76265
L80315 76209
L80315 75984
L80343 75928
L80400 75899
L80512 75899
L80568 75928
L80597 75984
L80597 76040
L80315 76096
" />
<path d="M80850 76237
L80878 76265
L80850 76293
L80822 76265
L80850 76237
L80850 76293
" />
<path d="M80850 75928
L80878 75956
L80850 75984
L80822 75956
L80850 75928
L80850 75984
" />
</g>
<g style="fill:#000000; fill-opacity:0.0; 
stroke:#000000; stroke-width:39.3701; stroke-opacity:1; 
stroke-linecap:round; stroke-linejoin:round;">
</g>
<g style="fill:#000000; fill-opacity:0.0; 
stroke:#000000; stroke-width:59.0551; stroke-opacity:1; 
stroke-linecap:round; stroke-linejoin:round;">
<path d="M69685 76577
L112205 76577
" />
</g>
<g style="fill:#000000; fill-opacity:0.0; 
stroke:#000000; stroke-width:39.3701; stroke-opacity:1; 
stroke-linecap:round; stroke-linejoin:round;">
</g>
<g style="fill:#000000; fill-opacity:0.0; 
stroke:#000000; stroke-width:59.0551; stroke-opacity:1; 
stroke-linecap:round; stroke-linejoin:round;">
<path d="M70220 77395
L70220 76805
" />
<path d="M70557 77395
L70304 77058
" />
<path d="M70557 76805
L70220 77142
" />
<path d="M70810 77395
L70810 77002
" />
<path d="M70810 76805
L70782 76833
L70810 76861
L70838 76833
L70810 76805
L70810 76861
" />
<path d="M71429 77339
L71401 77367
L71316 77395
L71260 77395
L71176 77367
L71120 77311
L71091 77255
L71063 77142
L71063 77058
L71091 76946
L71120 76889
L71176 76833
L71260 76805
L71316 76805
L71401 76833
L71429 76861
" />
<path d="M71935 77395
L71935 77086
L71907 77030
L71851 77002
L71738 77002
L71682 77030
" />
<path d="M71935 77367
L71879 77395
L71738 77395
L71682 77367
L71654 77311
L71654 77255
L71682 77199
L71738 77171
L71879 77171
L71935 77142
" />
<path d="M72469 77395
L72469 76805
" />
<path d="M72469 77367
L72413 77395
L72301 77395
L72244 77367
L72216 77339
L72188 77283
L72188 77114
L72216 77058
L72244 77030
L72301 77002
L72413 77002
L72469 77030
" />
<path d="M73201 77086
L73397 77086
" />
<path d="M73482 77395
L73201 77395
L73201 76805
L73482 76805
" />
<path d="M73735 77339
L73763 77367
L73735 77395
L73707 77367
L73735 77339
L73735 77395
" />
<path d="M74016 77395
L74016 76805
L74157 76805
L74241 76833
L74297 76889
L74325 76946
L74354 77058
L74354 77142
L74325 77255
L74297 77311
L74241 77367
L74157 77395
L74016 77395
" />
<path d="M74607 77339
L74635 77367
L74607 77395
L74579 77367
L74607 77339
L74607 77395
" />
<path d="M74860 77227
L75141 77227
" />
<path d="M74804 77395
L75000 76805
L75197 77395
" />
<path d="M75394 77339
L75422 77367
L75394 77395
L75366 77367
L75394 77339
L75394 77395
" />
<path d="M76575 77395
L76575 76805
" />
<path d="M76631 77171
L76800 77395
" />
<path d="M76800 77002
L76575 77227
" />
<path d="M77053 77395
L77053 77002
" />
<path d="M77053 76805
L77025 76833
L77053 76861
L77081 76833
L77053 76805
L77053 76861
" />
<path d="M77588 77367
L77531 77395
L77419 77395
L77363 77367
L77334 77339
L77306 77283
L77306 77114
L77334 77058
L77363 77030
L77419 77002
L77531 77002
L77588 77030
" />
<path d="M78094 77395
L78094 77086
L78066 77030
L78009 77002
L77897 77002
L77841 77030
" />
<path d="M78094 77367
L78037 77395
L77897 77395
L77841 77367
L77813 77311
L77813 77255
L77841 77199
L77897 77171
L78037 77171
L78094 77142
" />
<path d="M78628 77395
L78628 76805
" />
<path d="M78628 77367
L78572 77395
L78459 77395
L78403 77367
L78375 77339
L78347 77283
L78347 77114
L78375 77058
L78403 77030
L78459 77002
L78572 77002
L78628 77030
" />
<path d="M79612 77002
L79612 77395
" />
<path d="M79472 76777
L79331 77199
L79697 77199
" />
<path d="M79922 77339
L79950 77367
L79922 77395
L79894 77367
L79922 77339
L79922 77395
" />
<path d="M80315 76805
L80372 76805
L80428 76833
L80456 76861
L80484 76917
L80512 77030
L80512 77171
L80484 77283
L80456 77339
L80428 77367
L80372 77395
L80315 77395
L80259 77367
L80231 77339
L80203 77283
L80175 77171
L80175 77030
L80203 76917
L80231 76861
L80259 76833
L80315 76805
" />
<path d="M80765 77339
L80793 77367
L80765 77395
L80737 77367
L80765 77339
L80765 77395
" />
<path d="M81018 76861
L81046 76833
L81103 76805
L81243 76805
L81300 76833
L81328 76861
L81356 76917
L81356 76974
L81328 77058
L80990 77395
L81356 77395
" />
<path d="M81609 77171
L82059 77171
" />
<path d="M82312 77367
L82368 77395
L82481 77395
L82537 77367
L82565 77311
L82565 77283
L82537 77227
L82481 77199
L82396 77199
L82340 77171
L82312 77114
L82312 77086
L82340 77030
L82396 77002
L82481 77002
L82537 77030
" />
<path d="M82734 77002
L82959 77002
" />
<path d="M82818 76805
L82818 77311
L82846 77367
L82903 77395
L82959 77395
" />
<path d="M83409 77395
L83409 77086
L83381 77030
L83324 77002
L83212 77002
L83156 77030
" />
<path d="M83409 77367
L83352 77395
L83212 77395
L83156 77367
L83127 77311
L83127 77255
L83156 77199
L83212 77171
L83352 77171
L83409 77142
" />
<path d="M83690 77395
L83690 76805
" />
<path d="M83690 77030
L83746 77002
L83859 77002
L83915 77030
L83943 77058
L83971 77114
L83971 77283
L83943 77339
L83915 77367
L83859 77395
L83746 77395
L83690 77367
" />
<path d="M84309 77395
L84252 77367
L84224 77311
L84224 76805
" />
<path d="M84759 77367
L84702 77395
L84590 77395
L84534 77367
L84505 77311
L84505 77086
L84534 77030
L84590 77002
L84702 77002
L84759 77030
L84787 77086
L84787 77142
L84505 77199
" />
</g>
<g style="fill:#000000; fill-opacity:0.0; 
stroke:#000000; stroke-width:39.3701; stroke-opacity:1; 
stroke-linecap:round; stroke-linejoin:round;">
</g>
<g style="fill:#000000; fill-opacity:0.0; 
stroke:#000000; stroke-width:59.0551; stroke-opacity:1; 
stroke-linecap:round; stroke-linejoin:round;">
<path d="M69685 75396
L112205 75396
" />
</g>
<g style="fill:#000000; fill-opacity:0.0; 
stroke:#000000; stroke-width:39.3701; stroke-opacity:1; 
stroke-linecap:round; stroke-linejoin:round;">
</g>
<g style="fill:#000000; fill-opacity:0.0; 
stroke:#000000; stroke-width:118.11; stroke-opacity:1; 
stroke-linecap:round; stroke-linejoin:round;">
<path d="M104022 76293
L103825 76012
" />
<path d="M103684 76293
L103684 75703
L103909 75703
L103965 75731
L103994 75759
L104022 75815
L104022 75899
L103994 75956
L103965 75984
L103909 76012
L103684 76012
" />
<path d="M104500 76265
L104444 76293
L104331 76293
L104275 76265
L104247 76209
L104247 75984
L104275 75928
L104331 75899
L104444 75899
L104500 75928
L104528 75984
L104528 76040
L104247 76096
" />
<path d="M104725 75899
L104865 76293
L105006 75899
" />
<path d="M105231 76237
L105259 76265
L105231 76293
L105203 76265
L105231 76237
L105231 76293
" />
<path d="M105231 75928
L105259 75956
L105231 75984
L105203 75956
L105231 75928
L105231 75984
" />
</g>
<g style="fill:#000000; fill-opacity:0.0; 
stroke:#000000; stroke-width:39.3701; stroke-opacity:1; 
stroke-linecap:round; stroke-linejoin:round;">
</g>
<g style="fill:#000000; fill-opacity:0.0; 
stroke:#000000; stroke-width:59.0551; stroke-opacity:1; 
stroke-linecap:round; stroke-linejoin:round;">
<path d="M70192 76265
L70276 76293
L70417 76293
L70473 76265
L70501 76237
L70529 76181
L70529 76124
L70501 76068
L70473 76040
L70417 76012
L70304 75984
L70248 75956
L70220 75928
L70192 75871
L70192 75815
L70220 75759
L70248 75731
L70304 75703
L70445 75703
L70529 75731
" />
<path d="M70782 76293
L70782 75899
" />
<path d="M70782 75703
L70754 75731
L70782 75759
L70810 75731
L70782 75703
L70782 75759
" />
<path d="M71007 75899
L71316 75899
L71007 76293
L71316 76293
" />
<path d="M71766 76265
L71710 76293
L71598 76293
L71541 76265
L71513 76209
L71513 75984
L71541 75928
L71598 75899
L71710 75899
L71766 75928
L71795 75984
L71795 76040
L71513 76096
" />
<path d="M72048 76237
L72076 76265
L72048 76293
L72019 76265
L72048 76237
L72048 76293
" />
<path d="M72048 75928
L72076 75956
L72048 75984
L72019 75956
L72048 75928
L72048 75984
" />
<path d="M72751 76124
L73032 76124
" />
<path d="M72694 76293
L72891 75703
L73088 76293
" />
<path d="M73538 75899
L73538 76293
" />
<path d="M73397 75674
L73257 76096
L73622 76096
" />
</g>
<g style="fill:#000000; fill-opacity:0.0; 
stroke:#000000; stroke-width:39.3701; stroke-opacity:1; 
stroke-linecap:round; stroke-linejoin:round;">
</g>
<g style="fill:#000000; fill-opacity:0.0; 
stroke:#000000; stroke-width:59.0551; stroke-opacity:1; 
stroke-linecap:round; stroke-linejoin:round;">
<path d="M103684 77395
L103684 76805
" />
<path d="M104219 77395
L104219 76805
" />
<path d="M104219 77367
L104162 77395
L104050 77395
L103994 77367
L103965 77339
L103937 77283
L103937 77114
L103965 77058
L103994 77030
L104050 77002
L104162 77002
L104219 77030
" />
<path d="M104500 77339
L104528 77367
L104500 77395
L104472 77367
L104500 77339
L104500 77395
" />
<path d="M104500 77030
L104528 77058
L104500 77086
L104472 77058
L104500 77030
L104500 77086
" />
<path d="M105540 77395
L105203 77395
" />
<path d="M105372 77395
L105372 76805
L105315 76889
L105259 76946
L105203 76974
" />
<path d="M106215 76777
L105709 77536
" />
<path d="M106721 77395
L106384 77395
" />
<path d="M106553 77395
L106553 76805
L106496 76889
L106440 76946
L106384 76974
" />
</g>
<g style="fill:#000000; fill-opacity:0.0; 
stroke:#000000; stroke-width:39.3701; stroke-opacity:1; 
stroke-linecap:round; stroke-linejoin:round;">
</g>
<g style="fill:#000000; fill-opacity:0.0; 
stroke:#000000; stroke-width:59.0551; stroke-opacity:1; 
stroke-linecap:round; stroke-linejoin:round;">
<path d="M69685 73821
L112205 73821
" />
</g>
<g style="fill:#000000; fill-opacity:0.0; 
stroke:#000000; stroke-width:39.3701; stroke-opacity:1; 
stroke-linecap:round; stroke-linejoin:round;">
</g>
<g style="fill:#000000; fill-opacity:0.0; 
stroke:#000000; stroke-width:157.48; stroke-opacity:1; 
stroke-linecap:round; stroke-linejoin:round;">
<path d="M70257 74099
L70707 74099
" />
<path d="M70384 74886
L70482 74099
" />
<path d="M70871 74886
L70937 74361
" />
<path d="M70970 74099
L70927 74136
L70960 74174
L71002 74136
L70970 74099
L70960 74174
" />
<path d="M71199 74361
L71499 74361
" />
<path d="M71345 74099
L71260 74774
L71288 74849
L71359 74886
L71434 74886
" />
<path d="M71809 74886
L71738 74849
L71710 74774
L71795 74099
" />
<path d="M72413 74849
L72334 74886
L72184 74886
L72113 74849
L72085 74774
L72123 74474
L72169 74399
L72249 74361
L72399 74361
L72469 74399
L72498 74474
L72488 74549
L72104 74624
" />
<path d="M72793 74811
L72826 74849
L72783 74886
L72751 74849
L72793 74811
L72783 74886
" />
<path d="M72844 74399
L72877 74436
L72835 74474
L72802 74436
L72844 74399
L72835 74474
" />
</g>
<g style="fill:#000000; fill-opacity:0.0; 
stroke:#000000; stroke-width:39.3701; stroke-opacity:1; 
stroke-linecap:round; stroke-linejoin:round;">
</g>
<g style="fill:#000000; fill-opacity:0.0; 
stroke:#000000; stroke-width:59.0551; stroke-opacity:1; 
stroke-linecap:round; stroke-linejoin:round;">
<path d="M70417 73070
L70220 73070
" />
<path d="M70220 73380
L70220 72789
L70501 72789
" />
<path d="M70726 73380
L70726 72986
" />
<path d="M70726 72789
L70698 72817
L70726 72845
L70754 72817
L70726 72789
L70726 72845
" />
<path d="M71091 73380
L71035 73352
L71007 73295
L71007 72789
" />
<path d="M71541 73352
L71485 73380
L71373 73380
L71316 73352
L71288 73295
L71288 73070
L71316 73014
L71373 72986
L71485 72986
L71541 73014
L71570 73070
L71570 73127
L71288 73183
" />
<path d="M71823 73323
L71851 73352
L71823 73380
L71795 73352
L71823 73323
L71823 73380
" />
<path d="M71823 73014
L71851 73042
L71823 73070
L71795 73042
L71823 73014
L71823 73070
" />
<path d="M72554 73380
L72554 72986
" />
<path d="M72554 73042
L72582 73014
L72638 72986
L72723 72986
L72779 73014
L72807 73070
L72807 73380
" />
<path d="M72807 73070
L72835 73014
L72891 72986
L72976 72986
L73032 73014
L73060 73070
L73060 73380
" />
<path d="M73594 73380
L73594 73070
L73566 73014
L73510 72986
L73397 72986
L73341 73014
" />
<path d="M73594 73352
L73538 73380
L73397 73380
L73341 73352
L73313 73295
L73313 73239
L73341 73183
L73397 73155
L73538 73155
L73594 73127
" />
<path d="M74129 72986
L74129 73464
L74100 73520
L74072 73548
L74016 73577
L73932 73577
L73876 73548
" />
<path d="M74129 73352
L74072 73380
L73960 73380
L73904 73352
L73876 73323
L73847 73267
L73847 73099
L73876 73042
L73904 73014
L73960 72986
L74072 72986
L74129 73014
" />
<path d="M74410 73380
L74410 72986
" />
<path d="M74410 72789
L74382 72817
L74410 72845
L74438 72817
L74410 72789
L74410 72845
" />
<path d="M74944 73352
L74888 73380
L74775 73380
L74719 73352
L74691 73323
L74663 73267
L74663 73099
L74691 73042
L74719 73014
L74775 72986
L74888 72986
L74944 73014
" />
<path d="M75169 73352
L75225 73380
L75338 73380
L75394 73352
L75422 73295
L75422 73267
L75394 73211
L75338 73183
L75253 73183
L75197 73155
L75169 73099
L75169 73070
L75197 73014
L75253 72986
L75338 72986
L75394 73014
" />
<path d="M75591 72986
L75816 72986
" />
<path d="M75675 72789
L75675 73295
L75703 73352
L75760 73380
L75816 73380
" />
<path d="M76013 73380
L76013 72986
" />
<path d="M76013 72789
L75985 72817
L76013 72845
L76041 72817
L76013 72789
L76013 72845
" />
<path d="M76547 73352
L76491 73380
L76378 73380
L76322 73352
L76294 73323
L76266 73267
L76266 73099
L76294 73042
L76322 73014
L76378 72986
L76491 72986
L76547 73014
" />
<path d="M76800 73380
L76800 72789
" />
<path d="M76856 73155
L77025 73380
" />
<path d="M77025 72986
L76800 73211
" />
<path d="M77278 73323
L77306 73352
L77278 73380
L77250 73352
L77278 73323
L77278 73380
" />
<path d="M77559 73380
L77559 72789
" />
<path d="M77616 73155
L77784 73380
" />
<path d="M77784 72986
L77559 73211
" />
<path d="M78037 73380
L78037 72986
" />
<path d="M78037 72789
L78009 72817
L78037 72845
L78066 72817
L78037 72789
L78037 72845
" />
<path d="M78572 73352
L78516 73380
L78403 73380
L78347 73352
L78319 73323
L78291 73267
L78291 73099
L78319 73042
L78347 73014
L78403 72986
L78516 72986
L78572 73014
" />
<path d="M79078 73380
L79078 73070
L79050 73014
L78994 72986
L78881 72986
L78825 73014
" />
<path d="M79078 73352
L79022 73380
L78881 73380
L78825 73352
L78797 73295
L78797 73239
L78825 73183
L78881 73155
L79022 73155
L79078 73127
" />
<path d="M79612 73380
L79612 72789
" />
<path d="M79612 73352
L79556 73380
L79444 73380
L79387 73352
L79359 73323
L79331 73267
L79331 73099
L79359 73042
L79387 73014
L79444 72986
L79556 72986
L79612 73014
" />
<path d="M79753 73436
L80203 73436
" />
<path d="M80343 72986
L80343 73577
" />
<path d="M80343 73014
L80400 72986
L80512 72986
L80568 73014
L80597 73042
L80625 73099
L80625 73267
L80597 73323
L80568 73352
L80512 73380
L80400 73380
L80343 73352
" />
<path d="M81131 73352
L81075 73380
L80962 73380
L80906 73352
L80878 73323
L80850 73267
L80850 73099
L80878 73042
L80906 73014
L80962 72986
L81075 72986
L81131 73014
" />
<path d="M81384 73380
L81384 72789
" />
<path d="M81384 73014
L81440 72986
L81553 72986
L81609 73014
L81637 73042
L81665 73099
L81665 73267
L81637 73323
L81609 73352
L81553 73380
L81440 73380
L81384 73352
" />
</g>
<g style="fill:#000000; fill-opacity:0.0; 
stroke:#000000; stroke-width:39.3701; stroke-opacity:1; 
stroke-linecap:round; stroke-linejoin:round;">
</g>
<g style="fill:#000000; fill-opacity:0.0; 
stroke:#000000; stroke-width:59.0551; stroke-opacity:1; 
stroke-linecap:round; stroke-linejoin:round;">
<path d="M69685 71459
L112205 71459
" />
</g>
<g style="fill:#000000; fill-opacity:0.0; 
stroke:#000000; stroke-width:39.3701; stroke-opacity:1; 
stroke-linecap:round; stroke-linejoin:round;">
</g>
<g style="fill:#000000; fill-opacity:0.0; 
stroke:#000000; stroke-width:59.0551; stroke-opacity:1; 
stroke-linecap:round; stroke-linejoin:round;">
<path d="M70192 72289
L70276 72317
L70417 72317
L70473 72289
L70501 72260
L70529 72204
L70529 72148
L70501 72092
L70473 72064
L70417 72036
L70304 72007
L70248 71979
L70220 71951
L70192 71895
L70192 71839
L70220 71782
L70248 71754
L70304 71726
L70445 71726
L70529 71754
" />
<path d="M70782 72317
L70782 71726
" />
<path d="M71035 72317
L71035 72007
L71007 71951
L70951 71923
L70867 71923
L70810 71951
L70782 71979
" />
<path d="M71541 72289
L71485 72317
L71373 72317
L71316 72289
L71288 72232
L71288 72007
L71316 71951
L71373 71923
L71485 71923
L71541 71951
L71570 72007
L71570 72064
L71288 72120
" />
<path d="M72048 72289
L71991 72317
L71879 72317
L71823 72289
L71795 72232
L71795 72007
L71823 71951
L71879 71923
L71991 71923
L72048 71951
L72076 72007
L72076 72064
L71795 72120
" />
<path d="M72244 71923
L72469 71923
" />
<path d="M72329 71726
L72329 72232
L72357 72289
L72413 72317
L72469 72317
" />
<path d="M72666 72260
L72694 72289
L72666 72317
L72638 72289
L72666 72260
L72666 72317
" />
<path d="M72666 71951
L72694 71979
L72666 72007
L72638 71979
L72666 71951
L72666 72007
" />
</g>
<g style="fill:#000000; fill-opacity:0.0; 
stroke:#000000; stroke-width:39.3701; stroke-opacity:1; 
stroke-linecap:round; stroke-linejoin:round;">
</g>
<g style="fill:#000000; fill-opacity:0.0; 
stroke:#000000; stroke-width:59.0551; stroke-opacity:1; 
stroke-linecap:round; stroke-linejoin:round;">
<path d="M77559 75396
L77559 76577
" />
</g>
<g style="fill:#000000; fill-opacity:0.0; 
stroke:#000000; stroke-width:39.3701; stroke-opacity:1; 
stroke-linecap:round; stroke-linejoin:round;">
</g>
<g style="fill:#000000; fill-opacity:0.0; 
stroke:#000000; stroke-width:59.0551; stroke-opacity:1; 
stroke-linecap:round; stroke-linejoin:round;">
<path d="M102756 75396
L102756 77955
" />
</g>
<g style="fill:#C2C200; fill-opacity:0.0; 
stroke:#C2C200; stroke-width:59.0551; stroke-opacity:1; 
stroke-linecap:round; stroke-linejoin:round;">
<path d="M40500 24000
L41000 24000
" />
<path d="M40500 36000
L40500 24000
" />
<path d="M71000 36000
L40500 36000
" />
<path d="M71000 24000
L71000 36000
" />
<path d="M41000 24000
L71000 24000
" />
<path d="M68709 26292
L68709 25898
L68803 25898
L68859 25917
L68896 25954
L68915 25992
L68934 26067
L68934 26123
L68915 26198
L68896 26236
L68859 26273
L68803 26292
L68709 26292
" />
<path d="M69309 26292
L69084 26292
" />
<path d="M69196 26292
L69196 25898
L69159 25954
L69121 25992
L69084 26011
" />
<path d="M68709 35063
L68709 34670
L68803 34670
L68859 34688
L68896 34726
L68915 34763
L68934 34838
L68934 34895
L68915 34970
L68896 35007
L68859 35045
L68803 35063
L68709 35063
" />
<path d="M69084 34707
L69103 34688
L69140 34670
L69234 34670
L69271 34688
L69290 34707
L69309 34745
L69309 34782
L69290 34838
L69065 35063
L69309 35063
" />
<path d="M50962 26140
L50925 26122
L50887 26084
L50831 26028
L50793 26009
L50756 26009
" />
<path d="M50775 26103
L50737 26084
L50700 26047
L50681 25972
L50681 25840
L50700 25765
L50737 25728
L50775 25709
L50850 25709
L50887 25728
L50925 25765
L50943 25840
L50943 25972
L50925 26047
L50887 26084
L50850 26103
L50775 26103
" />
<path d="M51318 26103
L51093 26103
" />
<path d="M51206 26103
L51206 25709
L51168 25765
L51131 25803
L51093 25822
" />
<path d="M50962 28940
L50925 28922
L50887 28884
L50831 28828
L50793 28809
L50756 28809
" />
<path d="M50775 28903
L50737 28884
L50700 28847
L50681 28772
L50681 28640
L50700 28565
L50737 28528
L50775 28509
L50850 28509
L50887 28528
L50925 28565
L50943 28640
L50943 28772
L50925 28847
L50887 28884
L50850 28903
L50775 28903
" />
<path d="M51093 28547
L51112 28528
L51149 28509
L51243 28509
L51281 28528
L51299 28547
L51318 28584
L51318 28622
L51299 28678
L51074 28903
L51318 28903
" />
<path d="M50962 31640
L50925 31622
L50887 31584
L50831 31528
L50793 31509
L50756 31509
" />
<path d="M50775 31603
L50737 31584
L50700 31547
L50681 31472
L50681 31340
L50700 31265
L50737 31228
L50775 31209
L50850 31209
L50887 31228
L50925 31265
L50943 31340
L50943 31472
L50925 31547
L50887 31584
L50850 31603
L50775 31603
" />
<path d="M51074 31209
L51318 31209
L51187 31359
L51243 31359
L51281 31378
L51299 31397
L51318 31434
L51318 31528
L51299 31565
L51281 31584
L51243 31603
L51131 31603
L51093 31584
L51074 31565
" />
<path d="M58962 26140
L58925 26122
L58887 26084
L58831 26028
L58793 26009
L58756 26009
" />
<path d="M58775 26103
L58737 26084
L58700 26047
L58681 25972
L58681 25840
L58700 25765
L58737 25728
L58775 25709
L58850 25709
L58887 25728
L58925 25765
L58943 25840
L58943 25972
L58925 26047
L58887 26084
L58850 26103
L58775 26103
" />
<path d="M59281 25840
L59281 26103
" />
<path d="M59187 25690
L59093 25972
L59337 25972
" />
<path d="M58962 29140
L58925 29122
L58887 29084
L58831 29028
L58793 29009
L58756 29009
" />
<path d="M58775 29103
L58737 29084
L58700 29047
L58681 28972
L58681 28840
L58700 28765
L58737 28728
L58775 28709
L58850 28709
L58887 28728
L58925 28765
L58943 28840
L58943 28972
L58925 29047
L58887 29084
L58850 29103
L58775 29103
" />
<path d="M59299 28709
L59112 28709
L59093 28897
L59112 28878
L59149 28859
L59243 28859
L59281 28878
L59299 28897
L59318 28934
L59318 29028
L59299 29065
L59281 29084
L59243 29103
L59149 29103
L59112 29084
L59093 29065
" />
<path d="M58962 31640
L58925 31622
L58887 31584
L58831 31528
L58793 31509
L58756 31509
" />
<path d="M58775 31603
L58737 31584
L58700 31547
L58681 31472
L58681 31340
L58700 31265
L58737 31228
L58775 31209
L58850 31209
L58887 31228
L58925 31265
L58943 31340
L58943 31472
L58925 31547
L58887 31584
L58850 31603
L58775 31603
" />
<path d="M59281 31209
L59206 31209
L59168 31228
L59149 31247
L59112 31303
L59093 31378
L59093 31528
L59112 31565
L59131 31584
L59168 31603
L59243 31603
L59281 31584
L59299 31565
L59318 31528
L59318 31434
L59299 31397
L59281 31378
L59243 31359
L59168 31359
L59131 31378
L59112 31397
L59093 31434
" />
<path d="M46836 29056
L46705 28868
" />
<path d="M46611 29056
L46611 28662
L46761 28662
L46798 28681
L46817 28699
L46836 28737
L46836 28793
L46817 28831
L46798 28849
L46761 28868
L46611 28868
" />
<path d="M47211 29056
L46986 29056
" />
<path d="M47098 29056
L47098 28662
L47061 28718
L47023 28756
L46986 28774
" />
<path d="M46836 32056
L46705 31868
" />
<path d="M46611 32056
L46611 31662
L46761 31662
L46798 31681
L46817 31699
L46836 31737
L46836 31793
L46817 31831
L46798 31849
L46761 31868
L46611 31868
" />
<path d="M46986 31699
L47005 31681
L47042 31662
L47136 31662
L47173 31681
L47192 31699
L47211 31737
L47211 31774
L47192 31831
L46967 32056
L47211 32056
" />
<path d="M46836 34556
L46705 34368
" />
<path d="M46611 34556
L46611 34162
L46761 34162
L46798 34181
L46817 34199
L46836 34237
L46836 34293
L46817 34331
L46798 34349
L46761 34368
L46611 34368
" />
<path d="M46967 34162
L47211 34162
L47080 34312
L47136 34312
L47173 34331
L47192 34349
L47211 34387
L47211 34481
L47192 34518
L47173 34537
L47136 34556
L47023 34556
L46986 34537
L46967 34518
" />
<path d="M55336 29056
L55205 28868
" />
<path d="M55111 29056
L55111 28662
L55261 28662
L55298 28681
L55317 28699
L55336 28737
L55336 28793
L55317 28831
L55298 28849
L55261 28868
L55111 28868
" />
<path d="M55673 28793
L55673 29056
" />
<path d="M55580 28643
L55486 28924
L55730 28924
" />
<path d="M64032 24800
L63901 24612
" />
<path d="M63807 24800
L63807 24406
L63957 24406
L63994 24425
L64013 24443
L64032 24481
L64032 24537
L64013 24575
L63994 24593
L63957 24612
L63807 24612
" />
<path d="M64388 24406
L64201 24406
L64182 24593
L64201 24575
L64238 24556
L64332 24556
L64369 24575
L64388 24593
L64407 24631
L64407 24725
L64388 24762
L64369 24781
L64332 24800
L64238 24800
L64201 24781
L64182 24762
" />
<path d="M64032 27800
L63901 27612
" />
<path d="M63807 27800
L63807 27406
L63957 27406
L63994 27425
L64013 27443
L64032 27481
L64032 27537
L64013 27575
L63994 27593
L63957 27612
L63807 27612
" />
<path d="M64369 27406
L64294 27406
L64257 27425
L64238 27443
L64201 27500
L64182 27575
L64182 27725
L64201 27762
L64219 27781
L64257 27800
L64332 27800
L64369 27781
L64388 27762
L64407 27725
L64407 27631
L64388 27593
L64369 27575
L64332 27556
L64257 27556
L64219 27575
L64201 27593
L64182 27631
" />
<path d="M64032 26300
L63901 26112
" />
<path d="M63807 26300
L63807 25906
L63957 25906
L63994 25925
L64013 25943
L64032 25981
L64032 26037
L64013 26075
L63994 26093
L63957 26112
L63807 26112
" />
<path d="M64163 25906
L64426 25906
L64257 26300
" />
<path d="M64032 30300
L63901 30112
" />
<path d="M63807 30300
L63807 29906
L63957 29906
L63994 29925
L64013 29943
L64032 29981
L64032 30037
L64013 30075
L63994 30093
L63957 30112
L63807 30112
" />
<path d="M64257 30075
L64219 30056
L64201 30037
L64182 30000
L64182 29981
L64201 29943
L64219 29925
L64257 29906
L64332 29906
L64369 29925
L64388 29943
L64407 29981
L64407 30000
L64388 30037
L64369 30056
L64332 30075
L64257 30075
L64219 30093
L64201 30112
L64182 30150
L64182 30225
L64201 30262
L64219 30281
L64257 30300
L64332 30300
L64369 30281
L64388 30262
L64407 30225
L64407 30150
L64388 30112
L64369 30093
L64332 30075
" />
<path d="M64032 33300
L63901 33112
" />
<path d="M63807 33300
L63807 32906
L63957 32906
L63994 32925
L64013 32943
L64032 32981
L64032 33037
L64013 33075
L63994 33093
L63957 33112
L63807 33112
" />
<path d="M64219 33300
L64294 33300
L64332 33281
L64351 33262
L64388 33206
L64407 33131
L64407 32981
L64388 32943
L64369 32925
L64332 32906
L64257 32906
L64219 32925
L64201 32943
L64182 32981
L64182 33075
L64201 33112
L64219 33131
L64257 33150
L64332 33150
L64369 33131
L64388 33112
L64407 33075
" />
<path d="M63844 31800
L63713 31612
" />
<path d="M63619 31800
L63619 31406
L63769 31406
L63807 31425
L63826 31443
L63844 31481
L63844 31537
L63826 31575
L63807 31593
L63769 31612
L63619 31612
" />
<path d="M64219 31800
L63994 31800
" />
<path d="M64107 31800
L64107 31406
L64069 31462
L64032 31500
L63994 31518
" />
<path d="M64463 31406
L64501 31406
L64538 31425
L64557 31443
L64576 31481
L64594 31556
L64594 31650
L64576 31725
L64557 31762
L64538 31781
L64501 31800
L64463 31800
L64426 31781
L64407 31762
L64388 31725
L64369 31650
L64369 31556
L64388 31481
L64407 31443
L64426 31425
L64463 31406
" />
<path d="M55148 32056
L55017 31868
" />
<path d="M54923 32056
L54923 31662
L55073 31662
L55111 31681
L55130 31699
L55148 31737
L55148 31793
L55130 31831
L55111 31849
L55073 31868
L54923 31868
" />
<path d="M55523 32056
L55298 32056
" />
<path d="M55411 32056
L55411 31662
L55373 31718
L55336 31756
L55298 31774
" />
<path d="M55898 32056
L55673 32056
" />
<path d="M55786 32056
L55786 31662
L55748 31718
L55711 31756
L55673 31774
" />
<path d="M55148 34556
L55017 34368
" />
<path d="M54923 34556
L54923 34162
L55073 34162
L55111 34181
L55130 34199
L55148 34237
L55148 34293
L55130 34331
L55111 34349
L55073 34368
L54923 34368
" />
<path d="M55523 34556
L55298 34556
" />
<path d="M55411 34556
L55411 34162
L55373 34218
L55336 34256
L55298 34274
" />
<path d="M55673 34199
L55692 34181
L55730 34162
L55823 34162
L55861 34181
L55880 34199
L55898 34237
L55898 34274
L55880 34331
L55655 34556
L55898 34556
" />
<path d="M41975 35685
L41843 35498
" />
<path d="M41750 35685
L41750 35292
L41900 35292
L41937 35311
L41956 35329
L41975 35367
L41975 35423
L41956 35461
L41937 35479
L41900 35498
L41750 35498
" />
<path d="M42275 35479
L42143 35479
" />
<path d="M42143 35685
L42143 35292
L42331 35292
" />
<path d="M42481 35685
L42481 35292
" />
<path d="M42668 35685
L42668 35292
L42762 35292
L42818 35311
L42856 35348
L42874 35386
L42893 35461
L42893 35517
L42874 35592
L42856 35629
L42818 35667
L42762 35685
L42668 35685
" />
<path d="M43268 35685
L43043 35685
" />
<path d="M43156 35685
L43156 35292
L43118 35348
L43081 35386
L43043 35404
" />
<path d="M51276 30299
L51595 30299
L51632 30281
L51651 30262
L51670 30224
L51670 30149
L51651 30112
L51632 30093
L51595 30074
L51276 30074
" />
<path d="M51670 29681
L51670 29906
" />
<path d="M51670 29793
L51276 29793
L51332 29831
L51370 29868
L51389 29906
" />
</g>
<g style="fill:#008484; fill-opacity:0.0; 
stroke:#008484; stroke-width:59.0551; stroke-opacity:1; 
stroke-linecap:round; stroke-linejoin:round;">
<path d="M68566 26765
L68389 26765
" />
<circle cx="69000" cy="27750" r="1161.42" /> 
<path d="M69433 26765
L69610 26765
" />
<path d="M69433 34234
L69610 34234
" />
<circle cx="69000" cy="33250" r="1161.42" /> 
<path d="M68566 34234
L68389 34234
" />
<path d="M50830 28169
L52169 28169
" />
<path d="M51500 26555.1 A944.882 944.882 0.0 0 0 50831.9 28168.1 " />
<path d="M52168.1 28168.1 A944.882 944.882 0.0 0 0 51500 26555.1 " />
<path d="M50830 30969
L52169 30969
" />
<path d="M51500 29355.1 A944.882 944.882 0.0 0 0 50831.9 30968.1 " />
<path d="M52168.1 30968.1 A944.882 944.882 0.0 0 0 51500 29355.1 " />
<path d="M50830 33669
L52169 33669
" />
<path d="M51500 32055.1 A944.882 944.882 0.0 0 0 50831.9 33668.1 " />
<path d="M52168.1 33668.1 A944.882 944.882 0.0 0 0 51500 32055.1 " />
<path d="M58830 28169
L60169 28169
" />
<path d="M59500 26555.1 A944.882 944.882 0.0 0 0 58831.9 28168.1 " />
<path d="M60168.1 28168.1 A944.882 944.882 0.0 0 0 59500 26555.1 " />
<path d="M58830 31169
L60169 31169
" />
<path d="M59500 29555.1 A944.882 944.882 0.0 0 0 58831.9 31168.1 " />
<path d="M60168.1 31168.1 A944.882 944.882 0.0 0 0 59500 29555.1 " />
<path d="M58830 33669
L60169 33669
" />
<path d="M59500 32055.1 A944.882 944.882 0.0 0 0 58831.9 33668.1 " />
<path d="M60168.1 33668.1 A944.882 944.882 0.0 0 0 59500 32055.1 " />
<path d="M48000 28000
L46000 28000
" />
<path d="M46000 28000
L46000 27000
" />
<path d="M46000 27000
L48000 27000
" />
<path d="M48000 27000
L48000 28000
" />
<path d="M48000 27500
L48500 27500
" />
<path d="M46000 27500
L45500 27500
" />
<path d="M48000 31000
L46000 31000
" />
<path d="M46000 31000
L46000 30000
" />
<path d="M46000 30000
L48000 30000
" />
<path d="M48000 30000
L48000 31000
" />
<path d="M48000 30500
L48500 30500
" />
<path d="M46000 30500
L45500 30500
" />
<path d="M48000 33500
L46000 33500
" />
<path d="M46000 33500
L46000 32500
" />
<path d="M46000 32500
L48000 32500
" />
<path d="M48000 32500
L48000 33500
" />
<path d="M48000 33000
L48500 33000
" />
<path d="M46000 33000
L45500 33000
" />
<path d="M56500 28000
L54500 28000
" />
<path d="M54500 28000
L54500 27000
" />
<path d="M54500 27000
L56500 27000
" />
<path d="M56500 27000
L56500 28000
" />
<path d="M56500 27500
L57000 27500
" />
<path d="M54500 27500
L54000 27500
" />
<path d="M63000 25500
L65000 25500
" />
<path d="M65000 25500
L65000 26500
" />
<path d="M65000 26500
L63000 26500
" />
<path d="M63000 26500
L63000 25500
" />
<path d="M63000 26000
L62500 26000
" />
<path d="M65000 26000
L65500 26000
" />
<path d="M63000 28500
L65000 28500
" />
<path d="M65000 28500
L65000 29500
" />
<path d="M65000 29500
L63000 29500
" />
<path d="M63000 29500
L63000 28500
" />
<path d="M63000 29000
L62500 29000
" />
<path d="M65000 29000
L65500 29000
" />
<path d="M63000 27000
L65000 27000
" />
<path d="M65000 27000
L65000 28000
" />
<path d="M65000 28000
L63000 28000
" />
<path d="M63000 28000
L63000 27000
" />
<path d="M63000 27500
L62500 27500
" />
<path d="M65000 27500
L65500 27500
" />
<path d="M63000 31000
L65000 31000
" />
<path d="M65000 31000
L65000 32000
" />
<path d="M65000 32000
L63000 32000
" />
<path d="M63000 32000
L63000 31000
" />
<path d="M63000 31500
L62500 31500
" />
<path d="M65000 31500
L65500 31500
" />
<path d="M63000 34000
L65000 34000
" />
<path d="M65000 34000
L65000 35000
" />
<path d="M65000 35000
L63000 35000
" />
<path d="M63000 35000
L63000 34000
" />
<path d="M63000 34500
L62500 34500
" />
<path d="M65000 34500
L65500 34500
" />
<path d="M63000 32500
L65000 32500
" />
<path d="M65000 32500
L65000 33500
" />
<path d="M65000 33500
L63000 33500
" />
<path d="M63000 33500
L63000 32500
" />
<path d="M63000 33000
L62500 33000
" />
<path d="M65000 33000
L65500 33000
" />
<path d="M56500 31000
L54500 31000
" />
<path d="M54500 31000
L54500 30000
" />
<path d="M54500 30000
L56500 30000
" />
<path d="M56500 30000
L56500 31000
" />
<path d="M56500 30500
L57000 30500
" />
<path d="M54500 30500
L54000 30500
" />
<path d="M56500 33500
L54500 33500
" />
<path d="M54500 33500
L54500 32500
" />
<path d="M54500 32500
L56500 32500
" />
<path d="M56500 32500
L56500 33500
" />
<path d="M56500 33000
L57000 33000
" />
<path d="M54500 33000
L54000 33000
" />
<path d="M42000 33000
L42000 26000
" />
<path d="M42000 26000
L43000 26000
" />
<path d="M43000 26000
L43000 33000
" />
<path d="M41889 34110
L41889 33500
" />
<path d="M42000 33000
L43000 33000
" />
<path d="M43110 33500
L43110 34110
" />
<path d="M43110 34110
L41889 34110
" />
<path d="M47000 35000
L61000 35000
" />
<path d="M61000 35000
L61000 34000
" />
<path d="M61000 34000
L47000 34000
" />
<path d="M45889 33889
L46500 33889
" />
<path d="M47000 34000
L47000 35000
" />
<path d="M46500 35110
L45889 35110
" />
<path d="M45889 35110
L45889 33889
" />
<path d="M61000 26000
L61000 25000
" />
<path d="M46000 26000
L61000 26000
" />
<path d="M46000 25000
L46000 26000
" />
<path d="M61000 25000
L46000 25000
" />
</g>
<g style="fill:#840000; fill-opacity:0.0; 
stroke:#840000; stroke-width:59.0551; stroke-opacity:1; 
stroke-linecap:round; stroke-linejoin:round;">
</g>
<g style="fill:#840000; fill-opacity:0.0; 
stroke:#840000; stroke-width:440; stroke-opacity:1; 
stroke-linecap:round; stroke-linejoin:round;">
<path d="M68845 27000
L69155 27000
" />
</g>
<g style="fill:#840000; fill-opacity:0.0; 
stroke:#840000; stroke-width:0; stroke-opacity:1; 
stroke-linecap:round; stroke-linejoin:round;">
</g>
<g style="fill:#840000; fill-opacity:1.0; 
stroke:#840000; stroke-width:0; stroke-opacity:1; 
stroke-linecap:round; stroke-linejoin:round;">
<polyline style="fill-rule:evenodd;"
points="68625,27720
68625,27280
69375,27280
69375,27720
68625,27720
" /> 
</g>
<g style="fill:#840000; fill-opacity:1.0; 
stroke:#840000; stroke-width:440; stroke-opacity:1; 
stroke-linecap:round; stroke-linejoin:round;">
</g>
<g style="fill:#840000; fill-opacity:0.0; 
stroke:#840000; stroke-width:440; stroke-opacity:1; 
stroke-linecap:round; stroke-linejoin:round;">
<path d="M68845 28000
L69155 28000
" />
<path d="M68845 28500
L69155 28500
" />
<path d="M69155 34000
L68845 34000
" />
</g>
<g style="fill:#840000; fill-opacity:0.0; 
stroke:#840000; stroke-width:0; stroke-opacity:1; 
stroke-linecap:round; stroke-linejoin:round;">
</g>
<g style="fill:#840000; fill-opacity:1.0; 
stroke:#840000; stroke-width:0; stroke-opacity:1; 
stroke-linecap:round; stroke-linejoin:round;">
<polyline style="fill-rule:evenodd;"
points="69375,33280
69375,33720
68625,33720
68625,33280
69375,33280
" /> 
</g>
<g style="fill:#840000; fill-opacity:1.0; 
stroke:#840000; stroke-width:440; stroke-opacity:1; 
stroke-linecap:round; stroke-linejoin:round;">
</g>
<g style="fill:#840000; fill-opacity:0.0; 
stroke:#840000; stroke-width:440; stroke-opacity:1; 
stroke-linecap:round; stroke-linejoin:round;">
<path d="M69155 33000
L68845 33000
" />
<path d="M69155 32500
L68845 32500
" />
</g>
<g style="fill:#840000; fill-opacity:0.0; 
stroke:#840000; stroke-width:354; stroke-opacity:1; 
stroke-linecap:round; stroke-linejoin:round;">
<path d="M51500 27618
L51500 27381
" />
<path d="M52000 27618
L52000 27381
" />
<path d="M51000 27618
L51000 27381
" />
<path d="M51500 30418
L51500 30181
" />
<path d="M52000 30418
L52000 30181
" />
<path d="M51000 30418
L51000 30181
" />
<path d="M51500 33118
L51500 32881
" />
<path d="M52000 33118
L52000 32881
" />
<path d="M51000 33118
L51000 32881
" />
<path d="M59500 27618
L59500 27381
" />
<path d="M60000 27618
L60000 27381
" />
<path d="M59000 27618
L59000 27381
" />
<path d="M59500 30618
L59500 30381
" />
<path d="M60000 30618
L60000 30381
" />
<path d="M59000 30618
L59000 30381
" />
<path d="M59500 33118
L59500 32881
" />
<path d="M60000 33118
L60000 32881
" />
<path d="M59000 33118
L59000 32881
" />
</g>
<g style="fill:#840000; fill-opacity:1.0; 
stroke:#840000; stroke-width:0; stroke-opacity:1; 
stroke-linecap:round; stroke-linejoin:round;">
<circle cx="49000" cy="27500" r="393.5" /> 
</g>
<g style="fill:#840000; fill-opacity:1.0; 
stroke:#840000; stroke-width:39.3701; stroke-opacity:1; 
stroke-linecap:round; stroke-linejoin:round;">
</g>
<g style="fill:#840000; fill-opacity:1.0; 
stroke:#840000; stroke-width:0; stroke-opacity:1; 
stroke-linecap:round; stroke-linejoin:round;">
<circle cx="45000" cy="27500" r="393.5" /> 
</g>
<g style="fill:#840000; fill-opacity:1.0; 
stroke:#840000; stroke-width:39.3701; stroke-opacity:1; 
stroke-linecap:round; stroke-linejoin:round;">
</g>
<g style="fill:#840000; fill-opacity:1.0; 
stroke:#840000; stroke-width:0; stroke-opacity:1; 
stroke-linecap:round; stroke-linejoin:round;">
<circle cx="49000" cy="30500" r="393.5" /> 
</g>
<g style="fill:#840000; fill-opacity:1.0; 
stroke:#840000; stroke-width:39.3701; stroke-opacity:1; 
stroke-linecap:round; stroke-linejoin:round;">
</g>
<g style="fill:#840000; fill-opacity:1.0; 
stroke:#840000; stroke-width:0; stroke-opacity:1; 
stroke-linecap:round; stroke-linejoin:round;">
<circle cx="45000" cy="30500" r="393.5" /> 
</g>
<g style="fill:#840000; fill-opacity:1.0; 
stroke:#840000; stroke-width:39.3701; stroke-opacity:1; 
stroke-linecap:round; stroke-linejoin:round;">
</g>
<g style="fill:#840000; fill-opacity:1.0; 
stroke:#840000; stroke-width:0; stroke-opacity:1; 
stroke-linecap:round; stroke-linejoin:round;">
<circle cx="49000" cy="33000" r="393.5" /> 
</g>
<g style="fill:#840000; fill-opacity:1.0; 
stroke:#840000; stroke-width:39.3701; stroke-opacity:1; 
stroke-linecap:round; stroke-linejoin:round;">
</g>
<g style="fill:#840000; fill-opacity:1.0; 
stroke:#840000; stroke-width:0; stroke-opacity:1; 
stroke-linecap:round; stroke-linejoin:round;">
<circle cx="45000" cy="33000" r="393.5" /> 
</g>
<g style="fill:#840000; fill-opacity:1.0; 
stroke:#840000; stroke-width:39.3701; stroke-opacity:1; 
stroke-linecap:round; stroke-linejoin:round;">
</g>
<g style="fill:#840000; fill-opacity:1.0; 
stroke:#840000; stroke-width:0; stroke-opacity:1; 
stroke-linecap:round; stroke-linejoin:round;">
<circle cx="57500" cy="27500" r="393.5" /> 
</g>
<g style="fill:#840000; fill-opacity:1.0; 
stroke:#840000; stroke-width:39.3701; stroke-opacity:1; 
stroke-linecap:round; stroke-linejoin:round;">
</g>
<g style="fill:#840000; fill-opacity:1.0; 
stroke:#840000; stroke-width:0; stroke-opacity:1; 
stroke-linecap:round; stroke-linejoin:round;">
<circle cx="53500" cy="27500" r="393.5" /> 
</g>
<g style="fill:#840000; fill-opacity:1.0; 
stroke:#840000; stroke-width:39.3701; stroke-opacity:1; 
stroke-linecap:round; stroke-linejoin:round;">
</g>
<g style="fill:#840000; fill-opacity:1.0; 
stroke:#840000; stroke-width:0; stroke-opacity:1; 
stroke-linecap:round; stroke-linejoin:round;">
<circle cx="62000" cy="26000" r="393.5" /> 
</g>
<g style="fill:#840000; fill-opacity:1.0; 
stroke:#840000; stroke-width:39.3701; stroke-opacity:1; 
stroke-linecap:round; stroke-linejoin:round;">
</g>
<g style="fill:#840000; fill-opacity:1.0; 
stroke:#840000; stroke-width:0; stroke-opacity:1; 
stroke-linecap:round; stroke-linejoin:round;">
<circle cx="66000" cy="26000" r="393.5" /> 
</g>
<g style="fill:#840000; fill-opacity:1.0; 
stroke:#840000; stroke-width:39.3701; stroke-opacity:1; 
stroke-linecap:round; stroke-linejoin:round;">
</g>
<g style="fill:#840000; fill-opacity:1.0; 
stroke:#840000; stroke-width:0; stroke-opacity:1; 
stroke-linecap:round; stroke-linejoin:round;">
<circle cx="62000" cy="29000" r="393.5" /> 
</g>
<g style="fill:#840000; fill-opacity:1.0; 
stroke:#840000; stroke-width:39.3701; stroke-opacity:1; 
stroke-linecap:round; stroke-linejoin:round;">
</g>
<g style="fill:#840000; fill-opacity:1.0; 
stroke:#840000; stroke-width:0; stroke-opacity:1; 
stroke-linecap:round; stroke-linejoin:round;">
<circle cx="66000" cy="29000" r="393.5" /> 
</g>
<g style="fill:#840000; fill-opacity:1.0; 
stroke:#840000; stroke-width:39.3701; stroke-opacity:1; 
stroke-linecap:round; stroke-linejoin:round;">
</g>
<g style="fill:#840000; fill-opacity:1.0; 
stroke:#840000; stroke-width:0; stroke-opacity:1; 
stroke-linecap:round; stroke-linejoin:round;">
<circle cx="62000" cy="27500" r="393.5" /> 
</g>
<g style="fill:#840000; fill-opacity:1.0; 
stroke:#840000; stroke-width:39.3701; stroke-opacity:1; 
stroke-linecap:round; stroke-linejoin:round;">
</g>
<g style="fill:#840000; fill-opacity:1.0; 
stroke:#840000; stroke-width:0; stroke-opacity:1; 
stroke-linecap:round; stroke-linejoin:round;">
<circle cx="66000" cy="27500" r="393.5" /> 
</g>
<g style="fill:#840000; fill-opacity:1.0; 
stroke:#840000; stroke-width:39.3701; stroke-opacity:1; 
stroke-linecap:round; stroke-linejoin:round;">
</g>
<g style="fill:#840000; fill-opacity:1.0; 
stroke:#840000; stroke-width:0; stroke-opacity:1; 
stroke-linecap:round; stroke-linejoin:round;">
<circle cx="62000" cy="31500" r="393.5" /> 
</g>
<g style="fill:#840000; fill-opacity:1.0; 
stroke:#840000; stroke-width:39.3701; stroke-opacity:1; 
stroke-linecap:round; stroke-linejoin:round;">
</g>
<g style="fill:#840000; fill-opacity:1.0; 
stroke:#840000; stroke-width:0; stroke-opacity:1; 
stroke-linecap:round; stroke-linejoin:round;">
<circle cx="66000" cy="31500" r="393.5" /> 
</g>
<g style="fill:#840000; fill-opacity:1.0; 
stroke:#840000; stroke-width:39.3701; stroke-opacity:1; 
stroke-linecap:round; stroke-linejoin:round;">
</g>
<g style="fill:#840000; fill-opacity:1.0; 
stroke:#840000; stroke-width:0; stroke-opacity:1; 
stroke-linecap:round; stroke-linejoin:round;">
<circle cx="62000" cy="34500" r="393.5" /> 
</g>
<g style="fill:#840000; fill-opacity:1.0; 
stroke:#840000; stroke-width:39.3701; stroke-opacity:1; 
stroke-linecap:round; stroke-linejoin:round;">
</g>
<g style="fill:#840000; fill-opacity:1.0; 
stroke:#840000; stroke-width:0; stroke-opacity:1; 
stroke-linecap:round; stroke-linejoin:round;">
<circle cx="66000" cy="34500" r="393.5" /> 
</g>
<g style="fill:#840000; fill-opacity:1.0; 
stroke:#840000; stroke-width:39.3701; stroke-opacity:1; 
stroke-linecap:round; stroke-linejoin:round;">
</g>
<g style="fill:#840000; fill-opacity:1.0; 
stroke:#840000; stroke-width:0; stroke-opacity:1; 
stroke-linecap:round; stroke-linejoin:round;">
<circle cx="62000" cy="33000" r="393.5" /> 
</g>
<g style="fill:#840000; fill-opacity:1.0; 
stroke:#840000; stroke-width:39.3701; stroke-opacity:1; 
stroke-linecap:round; stroke-linejoin:round;">
</g>
<g style="fill:#840000; fill-opacity:1.0; 
stroke:#840000; stroke-width:0; stroke-opacity:1; 
stroke-linecap:round; stroke-linejoin:round;">
<circle cx="66000" cy="33000" r="393.5" /> 
</g>
<g style="fill:#840000; fill-opacity:1.0; 
stroke:#840000; stroke-width:39.3701; stroke-opacity:1; 
stroke-linecap:round; stroke-linejoin:round;">
</g>
<g style="fill:#840000; fill-opacity:1.0; 
stroke:#840000; stroke-width:0; stroke-opacity:1; 
stroke-linecap:round; stroke-linejoin:round;">
<circle cx="57500" cy="30500" r="393.5" /> 
</g>
<g style="fill:#840000; fill-opacity:1.0; 
stroke:#840000; stroke-width:39.3701; stroke-opacity:1; 
stroke-linecap:round; stroke-linejoin:round;">
</g>
<g style="fill:#840000; fill-opacity:1.0; 
stroke:#840000; stroke-width:0; stroke-opacity:1; 
stroke-linecap:round; stroke-linejoin:round;">
<circle cx="53500" cy="30500" r="393.5" /> 
</g>
<g style="fill:#840000; fill-opacity:1.0; 
stroke:#840000; stroke-width:39.3701; stroke-opacity:1; 
stroke-linecap:round; stroke-linejoin:round;">
</g>
<g style="fill:#840000; fill-opacity:1.0; 
stroke:#840000; stroke-width:0; stroke-opacity:1; 
stroke-linecap:round; stroke-linejoin:round;">
<circle cx="57500" cy="33000" r="393.5" /> 
</g>
<g style="fill:#840000; fill-opacity:1.0; 
stroke:#840000; stroke-width:39.3701; stroke-opacity:1; 
stroke-linecap:round; stroke-linejoin:round;">
</g>
<g style="fill:#840000; fill-opacity:1.0; 
stroke:#840000; stroke-width:0; stroke-opacity:1; 
stroke-linecap:round; stroke-linejoin:round;">
<circle cx="53500" cy="33000" r="393.5" /> 
</g>
<g style="fill:#840000; fill-opacity:1.0; 
stroke:#840000; stroke-width:39.3701; stroke-opacity:1; 
stroke-linecap:round; stroke-linejoin:round;">
</g>
<g style="fill:#840000; fill-opacity:1.0; 
stroke:#840000; stroke-width:0; stroke-opacity:1; 
stroke-linecap:round; stroke-linejoin:round;">
<polyline style="fill-rule:evenodd;"
points="42900,33160
42900,33840
42100,33840
42100,33160
42900,33160
" /> 
</g>
<g style="fill:#840000; fill-opacity:1.0; 
stroke:#840000; stroke-width:680; stroke-opacity:1; 
stroke-linecap:round; stroke-linejoin:round;">
</g>
<g style="fill:#840000; fill-opacity:0.0; 
stroke:#840000; stroke-width:680; stroke-opacity:1; 
stroke-linecap:round; stroke-linejoin:round;">
<path d="M42560 32500
L42440 32500
" />
<path d="M42560 31500
L42440 31500
" />
<path d="M42560 30500
L42440 30500
" />
<path d="M42560 29500
L42440 29500
" />
<path d="M42560 28500
L42440 28500
" />
<path d="M42560 27500
L42440 27500
" />
<path d="M42560 26500
L42440 26500
" />
<path d="M46500 34560
L46500 34440
" />
<path d="M47500 34560
L47500 34440
" />
<path d="M48500 34560
L48500 34440
" />
<path d="M49500 34560
L49500 34440
" />
<path d="M50500 34560
L50500 34440
" />
<path d="M51500 34560
L51500 34440
" />
<path d="M52500 34560
L52500 34440
" />
<path d="M53500 34560
L53500 34440
" />
<path d="M54500 34560
L54500 34440
" />
<path d="M55500 34560
L55500 34440
" />
<path d="M56500 34560
L56500 34440
" />
<path d="M57500 34560
L57500 34440
" />
<path d="M58500 34560
L58500 34440
" />
<path d="M59500 34560
L59500 34440
" />
<path d="M60500 34560
L60500 34440
" />
<path d="M46500 25560
L46500 25440
" />
<path d="M58500 25560
L58500 25440
" />
<path d="M59500 25560
L59500 25440
" />
<path d="M57500 25560
L57500 25440
" />
<path d="M51500 25560
L51500 25440
" />
<path d="M50500 25560
L50500 25440
" />
<path d="M52500 25560
L52500 25440
" />
<path d="M60500 25560
L60500 25440
" />
<path d="M54500 25560
L54500 25440
" />
<path d="M53500 25560
L53500 25440
" />
<path d="M55500 25560
L55500 25440
" />
<path d="M56500 25560
L56500 25440
" />
<path d="M48500 25560
L48500 25440
" />
<path d="M49500 25560
L49500 25440
" />
<path d="M47500 25560
L47500 25440
" />
</g> 
</svg>
